<mxfile host="app.diagrams.net" modified="2024-06-07T13:03:08.083Z" agent="Mozilla/5.0 (Windows NT 10.0; Win64; x64) AppleWebKit/537.36 (KHTML, like Gecko) Chrome/125.0.0.0 Safari/537.36" etag="iZvUVNH_BWKhGWr0udYO" version="24.5.2" type="github">
  <diagram name="Page-1" id="ExuoczWXUOQtd0SiYdWj">
    <mxGraphModel dx="1320" dy="952" grid="0" gridSize="10" guides="1" tooltips="1" connect="1" arrows="1" fold="1" page="0" pageScale="1" pageWidth="850" pageHeight="1100" math="0" shadow="0">
      <root>
        <mxCell id="0" />
        <mxCell id="1" parent="0" />
      </root>
    </mxGraphModel>
  </diagram>
</mxfile>
